<?xml version="1.0" encoding="utf-8"?>
<!-- Generator: Adobe Illustrator 22.0.1, SVG Export Plug-In . SVG Version: 6.00 Build 0)  -->
<svg version="1.1" id="Layer_1" xmlns="http://www.w3.org/2000/svg" xmlns:xlink="http://www.w3.org/1999/xlink" x="0px" y="0px"
	 viewBox="0 0 90 90" style="enable-background:new 0 0 90 90;" xml:space="preserve">
<style type="text/css">
	.st0{fill:#C4302B;}
	.st1{fill:#FFFFFF;}
</style>
<rect x="0" y="0" class="st0" width="90" height="90"/>
<g>
	<path class="st1" d="M-56.9,310.4c4.6,0,8.2-1.5,10.9-3.5c2.6-2.1,3.9-4.9,3.9-8.6v-22.1c0-3.3-1.3-5.9-4-8
		c-2.7-2.1-6.1-3.1-10.3-3.1c-4.6,0-8.3,1-11,2.9c-2.7,2-4.1,4.6-4.1,7.9V298c0,3.6,1.3,6.5,4,8.7
		C-64.8,308.9-61.3,310.4-56.9,310.4z M-61.7,276.9c0-0.8,0.4-1.5,1.3-2c0.9-0.5,2-0.8,3.4-0.8c1.5,0,2.7,0.3,3.7,0.8
		c0.9,0.5,1.4,1.2,1.4,2v21c0,1-0.5,1.9-1.4,2.4c-0.9,0.6-2.1,0.9-3.7,0.9c-1.5,0-2.7-0.3-3.5-0.9c-0.8-0.6-1.2-1.4-1.2-2.5V276.9z
		 M-26.4,310.3c1.6,0,3.3-0.9,5-1.9c1.7-0.9,3.4-2.3,5-4.1v4.9h8.6V265h-8.6v33.6c-0.8,1-1.7,1.7-2.6,2.4c-1,0.6-1.8,0.9-2.4,0.9
		c-0.8,0-1.4-0.2-1.7-0.7c-0.4-0.5-0.6-1.2-0.6-2.3v-34h-8.6v37c0,2.6,0.5,4.6,1.5,5.9C-29.9,309.2-28.4,310.3-26.4,310.3z
		 M-1.4,328.6h-104c-16.5,0-29.9,12.9-29.9,28.8v24.3c0,15.9,13.4,28.8,29.9,28.8h104c16.5,0,29.9-12.9,29.9-28.8v-24.3
		C28.6,341.5,15.2,328.6-1.4,328.6z M-89.9,353.3h-9.2v38.1h-8.9v-38.1h-9.2v-6.5h27.3C-89.9,346.8-89.9,353.3-89.9,353.3z
		 M-62.4,391.9H-72v-4c-1.8,1.5-3.6,2.6-5.5,3.3c-1.9,0.8-3.8,1.2-5.6,1.2c-2.2,0-3.9-0.5-5-1.6c-1.1-1.1-1.7-2.7-1.7-4.8V356h9.6
		v27.6c0,0.9,0.2,1.5,0.6,1.8c0.4,0.4,1.1,0.6,2,0.6c0.7,0,1.6-0.2,2.7-0.8c1.1-0.5,2.1-1.1,3-1.9v-27.3h9.6
		C-62.4,355.9-62.4,391.9-62.4,391.9z M-26.1,385.1c0,2.4-0.7,4.2-2.2,5.4c-1.5,1.3-3.6,1.9-6.4,1.9c-1.9,0-3.5-0.2-5-0.7
		c-1.4-0.5-2.8-1.2-4.1-2.3v2.5h-9.6v-45.1h9.6v14.5c1.3-1,2.6-1.8,4.1-2.3c1.4-0.5,2.9-0.8,4.4-0.8c3,0,5.3,0.7,6.9,2.1
		c1.6,1.4,2.4,3.5,2.4,6.2C-26.1,366.6-26.1,385.1-26.1,385.1z M10.3,374.9H-7.3v6.5c0,1.8,0.3,3.1,0.9,3.8c0.6,0.7,1.7,1,3.1,1
		c1.5,0,2.6-0.3,3.2-0.9c0.6-0.6,0.9-1.9,0.9-3.9v-1.6h9.5v1.8c0,3.5-1.1,6.2-3.5,8c-2.3,1.8-5.8,2.7-10.4,2.7
		c-4.1,0-7.4-0.9-9.8-2.8c-2.4-1.9-3.6-4.5-3.6-7.8v-15.5c0-3,1.3-5.4,3.9-7.3c2.6-1.9,6-2.8,10.1-2.8c4.2,0,7.5,0.9,9.8,2.6
		c2.3,1.7,3.4,4.3,3.4,7.5C10.3,366.1,10.3,374.9,10.3,374.9z M-95,310.5h10.9V284l12.6-37.3h-11l-6.7,25.5H-90l-7-25.5h-11
		l12.9,38.5C-95,285.2-95,310.5-95,310.5z M-39.8,363.5l-2,0.3l-2,1v20.7c0.8,0.5,1.5,0.9,2.2,1.2l2.3,0.4c1.2,0,2-0.2,2.6-0.7
		c0.5-0.5,0.8-1.2,0.8-2.3V367c0-1.1-0.3-2-1-2.6C-37.6,363.8-38.6,363.5-39.8,363.5z"/>
	<path class="st1" d="M-2.8,362c-1.5,0-2.5,0.3-3.2,0.9c-0.6,0.6-0.9,1.6-0.9,3.1v3.5h8.2v-3.5c0-1.4-0.3-2.5-1-3.1
		C-0.3,362.3-1.4,362-2.8,362z"/>
</g>
<g>
	<path class="st1" d="M43.8,38.8c1.6,0,2.8-0.5,3.7-1.2c0.9-0.7,1.3-1.7,1.3-2.9V27c0-1.1-0.5-2-1.4-2.7c-0.9-0.7-2.1-1.1-3.5-1.1
		c-1.6,0-2.8,0.3-3.8,1c-0.9,0.7-1.4,1.6-1.4,2.7v7.6c0,1.2,0.5,2.2,1.4,3C41.1,38.2,42.3,38.8,43.8,38.8z M42.1,27.3
		c0-0.3,0.1-0.5,0.4-0.7c0.3-0.2,0.7-0.3,1.2-0.3c0.5,0,0.9,0.1,1.3,0.3c0.3,0.2,0.5,0.4,0.5,0.7v7.2c0,0.4-0.2,0.6-0.5,0.8
		c-0.3,0.2-0.7,0.3-1.3,0.3c-0.5,0-0.9-0.1-1.2-0.3c-0.3-0.2-0.4-0.5-0.4-0.8V27.3z M54.2,38.8c0.6,0,1.1-0.3,1.7-0.6
		c0.6-0.3,1.2-0.8,1.7-1.4v1.7h2.9V23.2h-2.9v11.5c-0.3,0.3-0.6,0.6-0.9,0.8c-0.3,0.2-0.6,0.3-0.8,0.3c-0.3,0-0.5-0.1-0.6-0.2
		c-0.1-0.2-0.2-0.4-0.2-0.8V23.2h-2.9v12.7c0,0.9,0.2,1.6,0.5,2C53,38.4,53.6,38.8,54.2,38.8z M62.8,45H27.2
		c-5.7,0-10.3,4.4-10.3,9.9v8.3c0,5.4,4.6,9.9,10.3,9.9h35.6c5.7,0,10.3-4.4,10.3-9.9v-8.3C73.1,49.4,68.5,45,62.8,45z M32.5,53.5
		h-3.2v13h-3v-13h-3.2v-2.2h9.3C32.5,51.3,32.5,53.5,32.5,53.5z M41.9,66.7h-3.3v-1.4c-0.6,0.5-1.2,0.9-1.9,1.1
		c-0.7,0.3-1.3,0.4-1.9,0.4c-0.8,0-1.3-0.2-1.7-0.6c-0.4-0.4-0.6-0.9-0.6-1.6V54.4h3.3v9.4c0,0.3,0.1,0.5,0.2,0.6
		c0.1,0.1,0.4,0.2,0.7,0.2c0.2,0,0.5-0.1,0.9-0.3c0.4-0.2,0.7-0.4,1-0.7v-9.4h3.3C41.9,54.4,41.9,66.7,41.9,66.7z M54.3,64.4
		c0,0.8-0.3,1.4-0.8,1.9c-0.5,0.4-1.2,0.6-2.2,0.6c-0.6,0-1.2-0.1-1.7-0.2c-0.5-0.2-1-0.4-1.4-0.8v0.9H45V51.3h3.3v5
		c0.4-0.3,0.9-0.6,1.4-0.8c0.5-0.2,1-0.3,1.5-0.3c1,0,1.8,0.2,2.3,0.7c0.5,0.5,0.8,1.2,0.8,2.1C54.3,58,54.3,64.4,54.3,64.4z
		 M66.8,60.9h-6.1v2.2c0,0.6,0.1,1.1,0.3,1.3c0.2,0.2,0.6,0.4,1.1,0.4c0.5,0,0.9-0.1,1.1-0.3c0.2-0.2,0.3-0.7,0.3-1.4v-0.5h3.3v0.6
		c0,1.2-0.4,2.1-1.2,2.7c-0.8,0.6-2,0.9-3.6,0.9c-1.4,0-2.5-0.3-3.4-1c-0.8-0.6-1.2-1.5-1.2-2.7v-5.3c0-1,0.4-1.9,1.3-2.5
		c0.9-0.6,2-1,3.5-1c1.4,0,2.6,0.3,3.3,0.9c0.8,0.6,1.2,1.5,1.2,2.6C66.8,57.9,66.8,60.9,66.8,60.9z M30.7,38.8h3.7v-9.1l4.3-12.8
		H35l-2.3,8.7h-0.2L30,16.9h-3.8l4.4,13.2C30.7,30.1,30.7,38.8,30.7,38.8z M49.6,57l-0.7,0.1l-0.7,0.3v7.1c0.3,0.2,0.5,0.3,0.8,0.4
		l0.8,0.1c0.4,0,0.7-0.1,0.9-0.2c0.2-0.2,0.3-0.4,0.3-0.8v-5.9c0-0.4-0.1-0.7-0.3-0.9C50.4,57.1,50.1,57,49.6,57z"/>
	<path class="st1" d="M62.3,56.5c-0.5,0-0.9,0.1-1.1,0.3c-0.2,0.2-0.3,0.6-0.3,1.1V59h2.8v-1.2c0-0.5-0.1-0.8-0.3-1.1
		C63.2,56.6,62.8,56.5,62.3,56.5z"/>
</g>
</svg>
