<?xml version="1.0" encoding="utf-8"?>
<!-- Generator: Adobe Illustrator 22.0.1, SVG Export Plug-In . SVG Version: 6.00 Build 0)  -->
<svg version="1.1" id="Layer_1" xmlns="http://www.w3.org/2000/svg" xmlns:xlink="http://www.w3.org/1999/xlink" x="0px" y="0px"
	 viewBox="0 0 90 90" style="enable-background:new 0 0 90 90;" xml:space="preserve">
<style type="text/css">
	.st0{fill:url(#SVGID_1_);}
	.st1{fill:#FFFFFF;}
</style>
<linearGradient id="SVGID_1_" gradientUnits="userSpaceOnUse" x1="-3.801688e-10" y1="45" x2="90" y2="45">
	<stop  offset="0" style="stop-color:#FFDD55"/>
	<stop  offset="0.5" style="stop-color:#FF543E"/>
	<stop  offset="1" style="stop-color:#C837AB"/>
</linearGradient>
<rect x="0" y="0" class="st0" width="90" height="90"/>
<path class="st1" d="M45,17c-11.5,0-22.3-1-26.5,9.6C16.8,31.1,17,36.8,17,45c0,7.2-0.2,13.9,1.5,18.3C22.6,74,33.6,73,45,73
	c11,0,22.3,1.1,26.5-9.7C73.2,58.9,73,53.2,73,45c0-10.9,0.6-18-4.7-23.3C62.9,16.4,55.6,17,45,17L45,17z M42.5,22.1
	c23.9,0,26.9-2.7,25.3,34.2C67.2,69.3,57.2,67.9,45,67.9c-22.3,0-22.9-0.6-22.9-22.9C22.1,22.4,23.8,22.1,42.5,22.1L42.5,22.1z
	 M59.9,26.7c-1.9,0-3.4,1.5-3.4,3.4s1.5,3.4,3.4,3.4s3.4-1.5,3.4-3.4S61.8,26.7,59.9,26.7z M45,30.6c-7.9,0-14.4,6.4-14.4,14.4
	S37.1,59.4,45,59.4S59.4,52.9,59.4,45S52.9,30.6,45,30.6L45,30.6z M45,35.7c12.3,0,12.3,18.6,0,18.6C32.7,54.3,32.7,35.7,45,35.7z"
	/>
</svg>
