<?xml version="1.0" encoding="utf-8"?>
<!-- Generator: Adobe Illustrator 16.0.0, SVG Export Plug-In . SVG Version: 6.00 Build 0)  -->
<!DOCTYPE svg PUBLIC "-//W3C//DTD SVG 1.1//EN" "http://www.w3.org/Graphics/SVG/1.1/DTD/svg11.dtd">
<svg version="1.1" id="Layer_1" xmlns="http://www.w3.org/2000/svg" xmlns:xlink="http://www.w3.org/1999/xlink" x="0px" y="0px"
	 width="833.334px" height="833.333px" viewBox="543.333 83.333 833.334 833.333"
	 enable-background="new 543.333 83.333 833.334 833.333" xml:space="preserve">
<circle display="none" fill="#F0F0F0" cx="960" cy="500" r="416.667"/>
<g display="none">
	<path display="inline" fill="#0052B4" d="M630.833,245.833C597.5,287.5,572.5,337.5,560,391.667h216.667L630.833,245.833z"/>
	<path display="inline" fill="#0052B4" d="M1364.167,391.667c-12.5-54.167-37.5-104.167-70.834-145.833L1147.5,391.667H1364.167z"/>
	<path display="inline" fill="#0052B4" d="M555.833,608.333c12.5,54.167,37.5,104.167,70.834,145.834L772.5,608.333H555.833z"/>
	<path display="inline" fill="#0052B4" d="M1214.167,170.833C1172.5,137.5,1122.5,112.5,1068.333,100v216.667L1214.167,170.833z"/>
	<path display="inline" fill="#0052B4" d="M705.833,829.167C747.5,862.5,797.5,887.5,851.667,900V683.333L705.833,829.167z"/>
	<path display="inline" fill="#0052B4" d="M851.667,95.833C797.5,112.5,747.5,137.5,705.833,170.833l145.834,145.833V95.833z"/>
	<path display="inline" fill="#0052B4" d="M1068.333,904.167c54.167-12.5,104.167-37.5,145.834-70.834L1068.333,687.5V904.167z"/>
	<path display="inline" fill="#0052B4" d="M1147.5,608.333l145.833,145.834c33.334-41.667,58.334-91.667,70.834-145.834H1147.5z"/>
</g>
<path display="none" fill="#D80027" d="M1372.5,445.833h-358.333V87.5c-16.667-4.167-37.5-4.167-54.167-4.167s-37.5,0-54.167,4.167
	v358.333H547.5c-4.167,16.667-4.167,37.5-4.167,54.167s0,37.5,4.167,54.167h358.333V912.5c16.667,4.167,37.5,4.167,54.167,4.167
	s37.5,0,54.167-4.167V554.167H1372.5c4.167-16.667,4.167-37.5,4.167-54.167S1376.667,462.5,1372.5,445.833L1372.5,445.833z"/>
<path display="none" fill="#D80027" d="M1068.333,608.333l187.5,187.5l25-25L1122.5,612.5L1068.333,608.333z"/>
<path display="none" fill="#D80027" d="M851.667,608.333l-187.5,187.5c8.333,8.334,16.666,16.667,25,25L847.5,662.5L851.667,608.333
	z"/>
<path display="none" fill="#D80027" d="M851.667,391.667l-187.5-187.5c-8.334,8.333-16.667,16.667-25,29.167L797.5,391.667H851.667z
	"/>
<path display="none" fill="#D80027" d="M1068.333,391.667l187.5-187.5c-8.333-8.333-16.666-16.667-25-25L1072.5,337.5v54.167
	H1068.333z"/>
<g>
	<g>
		<defs>
			<path id="SVGID_1_" d="M1376.667,499.966c0,230.131-186.534,416.674-416.672,416.674c-230.118,0-416.662-186.543-416.662-416.674
				c0-230.088,186.544-416.633,416.662-416.633C1190.133,83.333,1376.667,269.879,1376.667,499.966z"/>
		</defs>
		<clipPath id="SVGID_2_">
			<use xlink:href="#SVGID_1_"  overflow="visible"/>
		</clipPath>
		<g clip-path="url(#SVGID_2_)">
			<g>
				<g id="Indonesia_30_">
					<g>
						<g>
							<defs>
								<rect id="SVGID_3_" x="188.265" y="40.837" width="1546.28" height="902.014"/>
							</defs>
							<defs>
								<rect id="SVGID_4_" x="188.265" y="40.837" width="1546.28" height="902.014"/>
							</defs>
							<clipPath id="SVGID_5_">
								<use xlink:href="#SVGID_3_"  overflow="visible"/>
							</clipPath>
							<clipPath id="SVGID_6_" clip-path="url(#SVGID_5_)">
								<use xlink:href="#SVGID_4_"  overflow="visible"/>
							</clipPath>
							<rect x="188.265" y="40.837" clip-path="url(#SVGID_6_)" fill="#BC0030" width="1546.28" height="451.022"/>
							<rect x="188.265" y="491.858" clip-path="url(#SVGID_6_)" fill="#FFFFFF" width="1546.28" height="450.993"/>
						</g>
					</g>
				</g>
			</g>
		</g>
		<g display="none" clip-path="url(#SVGID_2_)">
			<path display="inline" fill="#ED1C24" d="M1181.615,149.375h-177.313V85.568C1069.118,93.224,1129.357,115.665,1181.615,149.375z
				"/>
			<g display="inline">
				<path fill="#FFFFFF" d="M1272.455,227.25h-268.153v-77.875h178.975C1216.564,171.085,1246.532,197.356,1272.455,227.25z"/>
			</g>
			<g display="inline">
				<path fill="#ED1C24" d="M1004.31,305.111h321.331c-14.854-27.958-32.75-54.045-53.217-77.837H1004.31V305.111L1004.31,305.111z"
					/>
			</g>
			<g display="inline">
				<path fill="#FFFFFF" d="M1004.31,382.956h352.779c-7.925-27.151-18.516-53.228-31.448-77.844H1004.31V382.956L1004.31,382.956z"
					/>
			</g>
			<g display="inline">
				<path fill="#ED1C24" d="M1004.31,460.855h367.526c-2.416-26.816-7.42-52.793-14.747-77.899H1004.31V460.855z"/>
			</g>
			<g display="inline">
				<path fill="#FFFFFF" d="M1004.31,538.662h367.629c1.191-12.748,1.839-25.753,1.839-38.904c0-9.729-0.305-19.245-0.983-28.804
					c-0.187-3.39-0.606-6.765-0.958-10.099H1004.31V538.662z"/>
			</g>
			<g display="inline">
				<path fill="#ED1C24" d="M1004.31,550.577h-465.8c2.743,22.596,7.349,44.632,13.483,65.937h805.096
					c7.351-25.005,12.331-51.052,14.85-77.852H1004.31V550.577L1004.31,550.577z"/>
			</g>
			<g display="inline">
				<path fill="#ED1C24" d="M1004.31,538.662H537.247c0.342,4.001,0.812,7.975,1.263,11.915h465.8V538.662z"/>
			</g>
			<g display="inline">
				<path fill="#FFFFFF" d="M583.559,694.404h742.083c12.984-24.602,23.522-50.646,31.448-77.891H551.993
					C559.92,643.758,570.511,669.803,583.559,694.404z"/>
			</g>
			<g display="inline">
				<path fill="#ED1C24" d="M636.816,772.25h635.608c20.467-23.763,38.362-49.857,53.217-77.846H583.558
					C598.367,722.393,616.232,748.487,636.816,772.25z"/>
			</g>
			<g display="inline">
				<path fill="#FFFFFF" d="M725.932,850.141h457.32c33.319-21.655,63.312-47.903,89.171-77.891H636.816
					C662.684,802.237,692.628,828.485,725.932,850.141z"/>
			</g>
			<g display="inline">
				<path fill="#ED1C24" d="M954.562,917.897c84.416,0,162.963-25.028,228.69-67.757h-457.32
					C791.722,892.869,870.191,917.897,954.562,917.897z"/>
			</g>
			<g display="inline">
				<path fill="#262262" d="M1004.302,84.744v453.863h-467.04c-1.239-12.818-1.965-25.736-1.965-38.873
					c0-9.716,0.422-19.238,1.044-28.758c4.147-61.103,21.457-118.606,49.243-169.688c0.835-1.555,1.661-3.11,2.595-4.758
					c71.55-128.127,208.842-214.786,366.35-214.786C971.436,81.744,988.021,82.771,1004.302,84.744z"/>
			</g>
			<g display="inline">
				<g>
					<path fill="#FFFF00" d="M905.062,390.324c-24.129,59.695-91.051,90.866-153.043,70.12
						c-64.535-21.539-99.335-91.128-77.792-155.456c21.644-64.298,91.556-98.894,156.052-77.318
						c25.244,8.403,45.929,24.314,60.488,44.468c-9.204-8.495-20.436-15.326-32.977-19.47
						c-48.081-16.058-100.13,9.902-116.162,57.854c-16.141,47.95,9.609,99.873,57.723,116.002
						C839.795,440.015,882.708,423.942,905.062,390.324z"/>
				</g>
				<g>
					<polygon fill="#FFFF00" points="883.706,376.698 853.653,359.023 862.678,392.648 843.286,363.749 836.771,397.919 
						831.875,363.463 811.159,391.514 821.681,358.301 790.832,374.538 814.745,349.229 779.883,350.543 812.516,338.091 
						780.498,324.147 815.298,327.077 792.524,300.665 822.624,318.324 813.607,284.685 833.045,313.599 839.529,279.445 
						844.463,313.863 865.142,285.858 854.588,319.071 885.514,302.771 861.493,328.141 896.41,326.775 863.801,339.257 
						895.794,353.186 861.056,350.303 					"/>
				</g>
			</g>
		</g>
		<g display="none" clip-path="url(#SVGID_2_)">
			<path display="inline" fill="#A51931" d="M960.15,82.252c-123.245,0-233.976,53.693-310.271,139.015h620.541
				C1194.124,135.945,1083.393,82.252,960.15,82.252z"/>
			<path display="inline" fill="#A51931" d="M960.15,918.453c123.412,0,234.275-53.839,310.579-139.365h-621.16
				C725.875,864.614,836.737,918.453,960.15,918.453z"/>
			<path display="inline" fill="#F4F5F8" d="M1270.418,221.268h-620.54c-35.967,40.224-64.267,87.475-82.621,139.455h785.782
				C1334.688,308.742,1306.387,261.491,1270.418,221.268z"/>
			<path display="inline" fill="#F4F5F8" d="M649.568,779.088h621.16c35.9-40.234,64.138-87.486,82.433-139.455H567.134
				C585.432,691.602,613.668,738.854,649.568,779.088z"/>
			<path display="inline" fill="#2D2A4A" d="M1353.039,360.722H567.257c-15.417,43.67-23.838,90.661-23.838,139.632
				c0,48.839,8.375,95.709,23.714,139.281h786.027c15.341-43.57,23.716-90.441,23.716-139.281
				C1376.877,451.383,1368.458,404.393,1353.039,360.722z"/>
		</g>
	</g>
</g>
</svg>
