<?xml version="1.0" encoding="utf-8"?>
<!-- Generator: Adobe Illustrator 16.0.0, SVG Export Plug-In . SVG Version: 6.00 Build 0)  -->
<!DOCTYPE svg PUBLIC "-//W3C//DTD SVG 1.1//EN" "http://www.w3.org/Graphics/SVG/1.1/DTD/svg11.dtd">
<svg version="1.1" id="Layer_1" xmlns="http://www.w3.org/2000/svg" xmlns:xlink="http://www.w3.org/1999/xlink" x="0px" y="0px"
	 width="846px" height="836.105px" viewBox="0 0 846 836.105" enable-background="new 0 0 846 836.105" xml:space="preserve">
<circle display="none" fill="#F0F0F0" cx="960" cy="500" r="416.667"/>
<g display="none">
	<path display="inline" fill="#0052B4" d="M630.833,245.833C597.5,287.5,572.5,337.5,560,391.667h216.667L630.833,245.833z"/>
	<path display="inline" fill="#0052B4" d="M1364.167,391.667c-12.5-54.167-37.5-104.167-70.834-145.833L1147.5,391.667H1364.167z"/>
	<path display="inline" fill="#0052B4" d="M555.833,608.333c12.5,54.167,37.5,104.167,70.834,145.834L772.5,608.333H555.833z"/>
	<path display="inline" fill="#0052B4" d="M1214.167,170.833C1172.5,137.5,1122.5,112.5,1068.333,100v216.667L1214.167,170.833z"/>
	<path display="inline" fill="#0052B4" d="M705.833,829.167C747.5,862.5,797.5,887.5,851.667,900V683.333L705.833,829.167z"/>
	<path display="inline" fill="#0052B4" d="M851.667,95.833C797.5,112.5,747.5,137.5,705.833,170.833l145.834,145.833V95.833z"/>
	<path display="inline" fill="#0052B4" d="M1068.333,904.167c54.167-12.5,104.167-37.5,145.834-70.834L1068.333,687.5V904.167z"/>
	<path display="inline" fill="#0052B4" d="M1147.5,608.333l145.833,145.834c33.334-41.667,58.334-91.667,70.834-145.834H1147.5z"/>
</g>
<path display="none" fill="#D80027" d="M1372.5,445.833h-358.333V87.5c-16.667-4.167-37.5-4.167-54.167-4.167s-37.5,0-54.167,4.167
	v358.333H547.5c-4.167,16.667-4.167,37.5-4.167,54.167s0,37.5,4.167,54.167h358.333V912.5c16.667,4.167,37.5,4.167,54.167,4.167
	s37.5,0,54.167-4.167V554.167H1372.5c4.167-16.667,4.167-37.5,4.167-54.167S1376.667,462.5,1372.5,445.833L1372.5,445.833z"/>
<path display="none" fill="#D80027" d="M1068.333,608.333l187.5,187.5l25-25L1122.5,612.5L1068.333,608.333z"/>
<path display="none" fill="#D80027" d="M851.667,608.333l-187.5,187.5c8.333,8.334,16.666,16.667,25,25L847.5,662.5L851.667,608.333
	z"/>
<path display="none" fill="#D80027" d="M851.667,391.667l-187.5-187.5c-8.334,8.333-16.667,16.667-25,29.167L797.5,391.667H851.667z
	"/>
<path display="none" fill="#D80027" d="M1068.333,391.667l187.5-187.5c-8.333-8.333-16.666-16.667-25-25L1072.5,337.5v54.167
	H1068.333z"/>
<g display="none">
	<g display="inline">
		<g>
			<defs>
				<path id="SVGID_1_" d="M841.247,417.541c0,229.795-186.664,416.064-416.961,416.064c-230.279,0-416.953-186.271-416.953-416.064
					C7.333,187.791,194.007,1.52,424.286,1.52C654.583,1.52,841.247,187.791,841.247,417.541z"/>
			</defs>
			<clipPath id="SVGID_2_">
				<use xlink:href="#SVGID_1_"  overflow="visible"/>
			</clipPath>
			<g clip-path="url(#SVGID_2_)">
				<g display="none">
					<g display="inline">
						<g id="Indonesia_30_">
							<g>
								<g>
									<defs>
										<rect id="SVGID_3_" x="-347.983" y="-40.915" width="1547.357" height="900.693"/>
									</defs>
									<defs>
										<rect id="SVGID_4_" x="-347.983" y="-40.915" width="1547.357" height="900.693"/>
									</defs>
									<defs>
										<rect id="SVGID_5_" x="-347.983" y="-40.915" width="1547.357" height="900.693"/>
									</defs>
									<defs>
										<rect id="SVGID_6_" x="-347.983" y="-40.915" width="1547.357" height="900.693"/>
									</defs>
									<defs>
										<rect id="SVGID_7_" x="-347.983" y="-40.915" width="1547.357" height="900.693"/>
									</defs>
									<clipPath id="SVGID_8_">
										<use xlink:href="#SVGID_3_"  overflow="visible"/>
									</clipPath>
									<clipPath id="SVGID_9_" clip-path="url(#SVGID_8_)">
										<use xlink:href="#SVGID_4_"  overflow="visible"/>
									</clipPath>
									<clipPath id="SVGID_10_" clip-path="url(#SVGID_9_)">
										<use xlink:href="#SVGID_5_"  overflow="visible"/>
									</clipPath>
									<clipPath id="SVGID_11_" clip-path="url(#SVGID_10_)">
										<use xlink:href="#SVGID_6_"  overflow="visible"/>
									</clipPath>
									<clipPath id="SVGID_12_" clip-path="url(#SVGID_11_)">
										<use xlink:href="#SVGID_7_"  overflow="visible"/>
									</clipPath>
									<rect x="-347.983" y="-40.915" clip-path="url(#SVGID_12_)" fill="#BC0030" width="1547.357" height="450.361"/>
									<rect x="-347.983" y="409.446" clip-path="url(#SVGID_12_)" fill="#FFFFFF" width="1547.357" height="450.332"/>
								</g>
							</g>
						</g>
					</g>
				</g>
				<g>
					<defs>
						<path id="SVGID_13_" d="M841.247,417.541c0,229.795-186.664,416.064-416.961,416.064
							c-230.279,0-416.953-186.271-416.953-416.064C7.333,187.791,194.007,1.52,424.286,1.52
							C654.583,1.52,841.247,187.791,841.247,417.541z"/>
					</defs>
					<clipPath id="SVGID_14_">
						<use xlink:href="#SVGID_13_"  overflow="visible"/>
					</clipPath>
					<g clip-path="url(#SVGID_14_)">
						<path fill="#ED1C24" d="M689.557-1.202H477.32v-76.211C554.9-68.268,627.005-41.465,689.557-1.202z"/>
						<g>
							<path fill="#FFFFFF" d="M798.289,91.811h-320.97V-1.202h214.226C731.39,24.728,767.26,56.106,798.289,91.811z"/>
						</g>
						<g>
							<path fill="#ED1C24" d="M477.328,184.806h384.623c-17.781-33.393-39.201-64.549-63.699-92.967H477.328V184.806
								L477.328,184.806z"/>
						</g>
						<g>
							<path fill="#FFFFFF" d="M477.328,277.782h422.267c-9.487-32.429-22.165-63.574-37.644-92.976H477.328V277.782
								L477.328,277.782z"/>
						</g>
						<g>
							<path fill="#ED1C24" d="M477.328,370.824h439.918c-2.893-32.028-8.883-63.057-17.651-93.042H477.328V370.824z"/>
						</g>
						<g>
							<path fill="#FFFFFF" d="M477.328,463.755h440.039c1.427-15.226,2.201-30.758,2.201-46.466
								c0-11.622-0.364-22.986-1.178-34.404c-0.224-4.048-0.726-8.078-1.146-12.061H477.327L477.328,463.755L477.328,463.755z"/>
						</g>
						<g>
							<path fill="#ED1C24" d="M477.328,477.986H-80.221c3.283,26.986,8.797,53.308,16.14,78.754h963.676
								c8.798-29.866,14.759-60.977,17.772-92.985H477.328V477.986L477.328,477.986z"/>
						</g>
						<g>
							<path fill="#ED1C24" d="M477.328,463.755H-81.732c0.41,4.779,0.973,9.525,1.513,14.231h557.549L477.328,463.755
								L477.328,463.755z"/>
						</g>
						<g>
							<path fill="#FFFFFF" d="M-26.298,649.771h888.25c15.542-29.385,28.156-60.492,37.644-93.031H-64.081
								C-54.593,589.279-41.915,620.389-26.298,649.771z"/>
						</g>
						<g>
							<path fill="#ED1C24" d="M37.449,742.749h760.803c24.498-28.382,45.918-59.548,63.699-92.978h-888.25
								C-8.573,683.201,12.811,714.367,37.449,742.749z"/>
						</g>
						<g>
							<path fill="#FFFFFF" d="M144.118,835.78h547.397c39.883-25.865,75.78-57.215,106.734-93.031H37.449
								C68.412,778.565,104.255,809.915,144.118,835.78z"/>
						</g>
						<g>
							<path fill="#ED1C24" d="M417.781,916.707c101.043,0,195.063-29.896,273.734-80.927H144.118
								C222.866,886.813,316.792,916.707,417.781,916.707z"/>
						</g>
						<g>
							<path fill="#262262" d="M477.319-78.396v542.085H-81.714c-1.483-15.311-2.353-30.738-2.353-46.429
								c0-11.604,0.506-22.978,1.25-34.35c4.965-72.979,25.685-141.66,58.942-202.672c0.999-1.857,1.987-3.714,3.104-5.683
								C64.876,21.525,229.21-81.98,417.742-81.98C437.979-81.98,457.831-80.754,477.319-78.396z"/>
						</g>
						<g>
							<g>
								<path fill="#FFFF00" d="M358.53,286.583c-28.882,71.299-108.984,108.527-183.188,83.749
									C98.096,344.606,56.442,261.49,82.229,184.658c25.905-76.795,109.59-118.117,186.789-92.346
									c30.217,10.036,54.976,29.04,72.401,53.112c-11.018-10.147-24.461-18.307-39.472-23.255
									c-57.553-19.18-119.854,11.827-139.042,69.099c-19.32,57.271,11.502,119.287,69.092,138.55
									C280.408,345.934,331.773,326.735,358.53,286.583z"/>
							</g>
							<g>
								<polygon fill="#FFFF00" points="332.969,270.309 296.996,249.197 307.799,289.359 284.587,254.842 276.789,295.654 
									270.929,254.5 246.132,288.004 258.727,248.335 221.802,267.728 250.424,237.5 208.695,239.069 247.756,224.197 
									209.432,207.542 251.086,211.042 223.827,179.496 259.855,200.588 249.063,160.409 272.329,194.944 280.091,154.151 
									285.997,195.26 310.747,161.811 298.115,201.48 335.133,182.012 306.38,212.313 348.175,210.681 309.143,225.59 
									347.438,242.226 305.857,238.782 								"/>
							</g>
						</g>
					</g>
				</g>
				<g>
					<defs>
						<path id="SVGID_15_" d="M841.247,417.541c0,229.795-186.664,416.064-416.961,416.064
							c-230.279,0-416.953-186.271-416.953-416.064C7.333,187.791,194.007,1.52,424.286,1.52
							C654.583,1.52,841.247,187.791,841.247,417.541z"/>
					</defs>
					<clipPath id="SVGID_16_">
						<use xlink:href="#SVGID_15_"  overflow="visible"/>
					</clipPath>
					<g display="none" clip-path="url(#SVGID_16_)">
						<path display="inline" fill="#A51931" d="M424.469-81.372c-147.52,0-280.061,64.129-371.385,166.036h742.768
							C704.529-17.242,571.987-81.372,424.469-81.372z"/>
						<path display="inline" fill="#A51931" d="M424.469,917.371c147.721,0,280.42-64.304,371.754-166.455H52.713
							C144.049,853.067,276.748,917.371,424.469,917.371z"/>
						<path display="inline" fill="#F4F5F8" d="M795.851,84.665H53.084c-43.051,48.042-76.925,104.479-98.895,166.563h940.557
							C872.778,189.143,838.903,132.707,795.851,84.665z"/>
						<path display="inline" fill="#F4F5F8" d="M52.713,750.916h743.509c42.974-48.057,76.771-104.492,98.671-166.563H-45.958
							C-24.056,646.424,9.742,702.859,52.713,750.916z"/>
						<path display="inline" fill="#2D2A4A" d="M894.746,251.228H-45.811c-18.454,52.158-28.533,108.283-28.533,166.773
							c0,58.333,10.023,114.313,28.386,166.354h940.851c18.362-52.04,28.388-108.021,28.388-166.354
							C923.279,359.511,913.201,303.386,894.746,251.228z"/>
					</g>
				</g>
			</g>
		</g>
	</g>
</g>
<g display="none">
	<g display="inline">
		<defs>
			<rect id="SVGID_17_" x="7.336" y="2.941" width="831.164" height="831.164"/>
		</defs>
		<clipPath id="SVGID_18_">
			<use xlink:href="#SVGID_17_"  overflow="visible"/>
		</clipPath>
		<g clip-path="url(#SVGID_18_)">
			<defs>
				<circle id="SVGID_19_" cx="422.918" cy="418.523" r="415.582"/>
			</defs>
			<clipPath id="SVGID_20_">
				<use xlink:href="#SVGID_19_"  overflow="visible"/>
			</clipPath>
			<rect x="-200.455" y="2.941" clip-path="url(#SVGID_20_)" fill="#DA251D" width="1246.746" height="831.164"/>
			<polygon clip-path="url(#SVGID_20_)" fill="#FFFF00" points="222.056,349.184 332.108,429.143 290.072,558.518 400.125,478.563 
				510.18,558.518 468.143,429.143 578.195,349.184 441.711,349.184 400.125,221.192 358.539,349.184 			"/>
		</g>
	</g>
</g>
<g>
	<g>
		<defs>
			<rect id="SVGID_21_" x="8" y="4" width="830" height="830"/>
		</defs>
		<clipPath id="SVGID_22_">
			<use xlink:href="#SVGID_21_"  overflow="visible"/>
		</clipPath>
		<g clip-path="url(#SVGID_22_)">
			<defs>
				<circle id="SVGID_23_" cx="423" cy="419" r="415"/>
			</defs>
			<clipPath id="SVGID_24_">
				<use xlink:href="#SVGID_23_"  overflow="visible"/>
			</clipPath>
			<rect x="8" y="4" clip-path="url(#SVGID_24_)" fill="#FFFFFF" width="830" height="830"/>
			
				<rect x="142.815" y="232.211" transform="matrix(-0.5547 0.8321 -0.8321 -0.5547 561.1462 256.326)" clip-path="url(#SVGID_24_)" width="138.334" height="92.221"/>
			
				<rect x="116.901" y="262.965" transform="matrix(-0.5547 0.8321 -0.8321 -0.5547 530.7977 253.3836)" clip-path="url(#SVGID_24_)" fill="#FFFFFF" width="161.388" height="11.529"/>
			
				<rect x="145.676" y="282.15" transform="matrix(-0.5547 0.832 -0.832 -0.5547 591.4977 259.2705)" clip-path="url(#SVGID_24_)" fill="#FFFFFF" width="161.389" height="11.528"/>
			
				<rect x="564.849" y="513.568" transform="matrix(-0.5547 0.8321 -0.8321 -0.5547 1451.3835 342.5878)" clip-path="url(#SVGID_24_)" width="138.336" height="92.222"/>
			
				<rect x="538.935" y="544.323" transform="matrix(-0.5547 0.832 -0.832 -0.5547 1421.04 339.6624)" clip-path="url(#SVGID_24_)" fill="#FFFFFF" width="161.389" height="11.528"/>
			
				<rect x="567.71" y="563.505" transform="matrix(-0.5547 0.8321 -0.8321 -0.5547 1481.7329 345.5327)" clip-path="url(#SVGID_24_)" fill="#FFFFFF" width="161.387" height="11.53"/>
			
				<rect x="628.253" y="502.039" transform="matrix(-0.5547 0.8321 -0.8321 -0.5547 1451.3873 342.5985)" clip-path="url(#SVGID_24_)" fill="#FFFFFF" width="11.528" height="115.279"/>
			<path clip-path="url(#SVGID_24_)" fill="#C60C30" d="M307.899,342.266c42.377-63.566,128.266-80.744,191.832-38.363
				c63.57,42.375,80.745,128.264,38.369,191.832c-42.38,63.568-128.265,80.744-191.835,38.366
				C282.698,491.723,265.52,405.837,307.899,342.266"/>
			<path clip-path="url(#SVGID_24_)" fill="#003478" d="M307.899,342.266c-21.19,31.784-12.603,74.729,19.185,95.917
				c31.783,21.19,74.727,12.602,95.917-19.183c21.188-31.784,64.131-40.371,95.915-19.183
				c31.783,21.188,40.375,64.133,19.185,95.917c-42.38,63.568-128.265,80.744-191.835,38.366
				C282.698,491.723,265.52,405.837,307.899,342.266"/>
			
				<rect x="142.816" y="513.568" transform="matrix(0.5547 0.8321 -0.8321 0.5547 560.0775 72.8455)" clip-path="url(#SVGID_24_)" width="138.334" height="92.221"/>
			
				<rect x="116.901" y="563.507" transform="matrix(0.5547 0.8321 -0.8321 0.5547 561.6529 89.0894)" clip-path="url(#SVGID_24_)" fill="#FFFFFF" width="161.388" height="11.526"/>
			
				<rect x="145.675" y="544.323" transform="matrix(0.5547 0.832 -0.832 0.5547 558.4988 56.5997)" clip-path="url(#SVGID_24_)" fill="#FFFFFF" width="161.39" height="11.529"/>
			
				<rect x="564.849" y="232.212" transform="matrix(0.5547 0.8321 -0.8321 0.5547 513.9141 -403.598)" clip-path="url(#SVGID_24_)" width="138.336" height="92.221"/>
			
				<rect x="538.935" y="282.148" transform="matrix(0.5547 0.832 -0.832 0.5547 515.4742 -387.3546)" clip-path="url(#SVGID_24_)" fill="#FFFFFF" width="161.389" height="11.529"/>
			
				<rect x="567.71" y="262.968" transform="matrix(0.5547 0.8321 -0.8321 0.5547 512.3345 -419.839)" clip-path="url(#SVGID_24_)" fill="#FFFFFF" width="161.388" height="11.526"/>
			
				<rect x="628.252" y="220.685" transform="matrix(0.5547 0.8321 -0.8321 0.5547 513.906 -403.5961)" clip-path="url(#SVGID_24_)" fill="#FFFFFF" width="11.528" height="115.276"/>
			
				<rect x="622.489" y="266.795" transform="matrix(0.5548 0.832 -0.832 0.5548 513.8501 -403.5872)" clip-path="url(#SVGID_24_)" width="23.056" height="23.056"/>
			
				<rect x="206.218" y="536.625" transform="matrix(0.5546 0.8321 -0.8321 0.5546 560.1403 72.8902)" clip-path="url(#SVGID_24_)" fill="#FFFFFF" width="11.529" height="46.109"/>
		</g>
	</g>
</g>
</svg>
