<?xml version="1.0" encoding="utf-8"?>
<!-- Generator: Adobe Illustrator 16.0.0, SVG Export Plug-In . SVG Version: 6.00 Build 0)  -->
<!DOCTYPE svg PUBLIC "-//W3C//DTD SVG 1.1//EN" "http://www.w3.org/Graphics/SVG/1.1/DTD/svg11.dtd">
<svg version="1.1" id="Layer_1" xmlns="http://www.w3.org/2000/svg" xmlns:xlink="http://www.w3.org/1999/xlink" x="0px" y="0px"
	 width="846px" height="836.105px" viewBox="538.5 80.5 846 836.105" enable-background="new 538.5 80.5 846 836.105"
	 xml:space="preserve">
<circle display="none" fill="#F0F0F0" cx="960" cy="500" r="416.667"/>
<g display="none">
	<path display="inline" fill="#0052B4" d="M630.833,245.833C597.5,287.5,572.5,337.5,560,391.667h216.667L630.833,245.833z"/>
	<path display="inline" fill="#0052B4" d="M1364.167,391.667c-12.5-54.167-37.5-104.167-70.834-145.833L1147.5,391.667H1364.167z"/>
	<path display="inline" fill="#0052B4" d="M555.833,608.333c12.5,54.167,37.5,104.167,70.834,145.834L772.5,608.333H555.833z"/>
	<path display="inline" fill="#0052B4" d="M1214.167,170.833C1172.5,137.5,1122.5,112.5,1068.333,100v216.667L1214.167,170.833z"/>
	<path display="inline" fill="#0052B4" d="M705.833,829.167C747.5,862.5,797.5,887.5,851.667,900V683.333L705.833,829.167z"/>
	<path display="inline" fill="#0052B4" d="M851.667,95.833C797.5,112.5,747.5,137.5,705.833,170.833l145.834,145.833V95.833z"/>
	<path display="inline" fill="#0052B4" d="M1068.333,904.167c54.167-12.5,104.167-37.5,145.834-70.834L1068.333,687.5V904.167z"/>
	<path display="inline" fill="#0052B4" d="M1147.5,608.333l145.833,145.834c33.334-41.667,58.334-91.667,70.834-145.834H1147.5z"/>
</g>
<path display="none" fill="#D80027" d="M1372.5,445.833h-358.333V87.5c-16.667-4.167-37.5-4.167-54.167-4.167s-37.5,0-54.167,4.167
	v358.333H547.5c-4.167,16.667-4.167,37.5-4.167,54.167s0,37.5,4.167,54.167h358.333V912.5c16.667,4.167,37.5,4.167,54.167,4.167
	s37.5,0,54.167-4.167V554.167H1372.5c4.167-16.667,4.167-37.5,4.167-54.167S1376.667,462.5,1372.5,445.833L1372.5,445.833z"/>
<path display="none" fill="#D80027" d="M1068.333,608.333l187.5,187.5l25-25L1122.5,612.5L1068.333,608.333z"/>
<path display="none" fill="#D80027" d="M851.667,608.333l-187.5,187.5c8.333,8.334,16.666,16.667,25,25L847.5,662.5L851.667,608.333
	z"/>
<path display="none" fill="#D80027" d="M851.667,391.667l-187.5-187.5c-8.334,8.333-16.667,16.667-25,29.167L797.5,391.667H851.667z
	"/>
<path display="none" fill="#D80027" d="M1068.333,391.667l187.5-187.5c-8.333-8.333-16.666-16.667-25-25L1072.5,337.5v54.167
	H1068.333z"/>
<g>
	<g>
		<defs>
			<path id="SVGID_1_" d="M1377.247,500.541c0,229.795-186.664,416.064-416.961,416.064c-230.279,0-416.953-186.271-416.953-416.064
				c0-229.75,186.674-416.021,416.953-416.021C1190.583,84.52,1377.247,270.791,1377.247,500.541z"/>
		</defs>
		<clipPath id="SVGID_2_">
			<use xlink:href="#SVGID_1_"  overflow="visible"/>
		</clipPath>
		<g display="none" clip-path="url(#SVGID_2_)">
			<g display="inline">
				<g id="Indonesia_30_">
					<g>
						<g>
							<defs>
								<rect id="SVGID_3_" x="188.017" y="42.085" width="1547.357" height="900.693"/>
							</defs>
							<defs>
								<rect id="SVGID_4_" x="188.017" y="42.085" width="1547.357" height="900.693"/>
							</defs>
							<clipPath id="SVGID_5_">
								<use xlink:href="#SVGID_3_"  overflow="visible"/>
							</clipPath>
							<clipPath id="SVGID_6_" clip-path="url(#SVGID_5_)">
								<use xlink:href="#SVGID_4_"  overflow="visible"/>
							</clipPath>
							<rect x="188.017" y="42.085" clip-path="url(#SVGID_6_)" fill="#BC0030" width="1547.357" height="450.361"/>
							<rect x="188.017" y="492.446" clip-path="url(#SVGID_6_)" fill="#FFFFFF" width="1547.357" height="450.332"/>
						</g>
					</g>
				</g>
			</g>
		</g>
		<g clip-path="url(#SVGID_2_)">
			<path fill="#ED1C24" d="M1225.557,81.798H1013.32V5.587C1090.9,14.732,1163.005,41.535,1225.557,81.798z"/>
			<g>
				<path fill="#FFFFFF" d="M1334.289,174.811h-320.97V81.798h214.226C1267.39,107.728,1303.26,139.106,1334.289,174.811z"/>
			</g>
			<g>
				<path fill="#ED1C24" d="M1013.328,267.806h384.623c-17.781-33.393-39.201-64.549-63.699-92.967h-320.924V267.806
					L1013.328,267.806z"/>
			</g>
			<g>
				<path fill="#FFFFFF" d="M1013.328,360.782h422.267c-9.487-32.429-22.165-63.574-37.644-92.976h-384.623V360.782
					L1013.328,360.782z"/>
			</g>
			<g>
				<path fill="#ED1C24" d="M1013.328,453.824h439.918c-2.893-32.028-8.883-63.056-17.651-93.042h-422.267V453.824z"/>
			</g>
			<g>
				<path fill="#FFFFFF" d="M1013.328,546.755h440.039c1.427-15.226,2.201-30.758,2.201-46.466c0-11.622-0.364-22.986-1.177-34.404
					c-0.224-4.048-0.726-8.078-1.146-12.061h-439.918V546.755z"/>
			</g>
			<g>
				<path fill="#ED1C24" d="M1013.328,560.986H455.779c3.283,26.987,8.797,53.308,16.14,78.754h963.676
					c8.798-29.866,14.759-60.976,17.772-92.985h-440.039V560.986L1013.328,560.986z"/>
			</g>
			<g>
				<path fill="#ED1C24" d="M1013.328,546.755H454.268c0.41,4.779,0.972,9.525,1.512,14.231h557.549V546.755z"/>
			</g>
			<g>
				<path fill="#FFFFFF" d="M509.702,732.771h888.25c15.542-29.384,28.156-60.492,37.644-93.031H471.919
					C481.407,672.279,494.085,703.389,509.702,732.771z"/>
			</g>
			<g>
				<path fill="#ED1C24" d="M573.449,825.749h760.803c24.498-28.382,45.918-59.548,63.699-92.978h-888.25
					C527.427,766.201,548.811,797.367,573.449,825.749z"/>
			</g>
			<g>
				<path fill="#FFFFFF" d="M680.118,918.78h547.398c39.882-25.865,75.78-57.215,106.734-93.031H573.449
					C604.412,861.565,640.255,892.915,680.118,918.78z"/>
			</g>
			<g>
				<path fill="#ED1C24" d="M953.781,999.707c101.043,0,195.063-29.895,273.735-80.927H680.118
					C758.866,969.813,852.792,999.707,953.781,999.707z"/>
			</g>
			<g>
				<path fill="#262262" d="M1013.319,4.604v542.085H454.286c-1.483-15.31-2.352-30.738-2.352-46.428
					c0-11.605,0.505-22.978,1.25-34.35c4.964-72.979,25.684-141.66,58.942-202.672c0.999-1.857,1.987-3.714,3.105-5.683
					C600.876,104.525,765.21,1.02,953.742,1.02C973.979,1.02,993.831,2.246,1013.319,4.604z"/>
			</g>
			<g>
				<g>
					<path fill="#FFFF00" d="M894.53,369.583c-28.882,71.299-108.984,108.527-183.188,83.749
						c-77.246-25.726-118.9-108.842-93.114-185.674c25.906-76.795,109.59-118.117,186.789-92.346
						c30.217,10.036,54.976,29.04,72.402,53.112c-11.018-10.147-24.461-18.307-39.472-23.255
						c-57.552-19.18-119.853,11.827-139.042,69.099c-19.32,57.271,11.502,119.287,69.092,138.55
						C816.408,428.934,867.773,409.735,894.53,369.583z"/>
				</g>
				<g>
					<polygon fill="#FFFF00" points="868.969,353.309 832.996,332.197 843.799,372.359 820.587,337.842 812.789,378.654 
						806.929,337.5 782.132,371.004 794.727,331.335 757.802,350.728 786.424,320.5 744.695,322.069 783.756,307.197 
						745.432,290.542 787.086,294.042 759.827,262.496 795.855,283.588 785.063,243.409 808.329,277.944 816.091,237.151 
						821.997,278.26 846.747,244.811 834.115,284.48 871.133,265.012 842.38,295.313 884.175,293.681 845.143,308.59 
						883.438,325.226 841.857,321.782 					"/>
				</g>
			</g>
		</g>
		<g display="none" clip-path="url(#SVGID_2_)">
			<path display="inline" fill="#A51931" d="M960.469,1.628c-147.52,0-280.061,64.129-371.385,166.036h742.768
				C1240.529,65.758,1107.987,1.628,960.469,1.628z"/>
			<path display="inline" fill="#A51931" d="M960.469,1000.371c147.721,0,280.42-64.304,371.754-166.455h-743.51
				C680.049,936.067,812.748,1000.371,960.469,1000.371z"/>
			<path display="inline" fill="#F4F5F8" d="M1331.851,167.665H589.084c-43.051,48.042-76.925,104.479-98.895,166.563h940.557
				C1408.778,272.143,1374.903,215.707,1331.851,167.665z"/>
			<path display="inline" fill="#F4F5F8" d="M588.713,833.916h743.509c42.973-48.057,76.771-104.492,98.671-166.563H490.042
				C511.944,729.424,545.742,785.859,588.713,833.916z"/>
			<path display="inline" fill="#2D2A4A" d="M1430.746,334.228H490.189c-18.454,52.158-28.533,108.283-28.533,166.773
				c0,58.333,10.024,114.313,28.386,166.354h940.851c18.362-52.04,28.387-108.021,28.387-166.354
				C1459.279,442.511,1449.201,386.386,1430.746,334.228z"/>
		</g>
	</g>
</g>
</svg>
